<mxfile host="Electron" agent="Mozilla/5.0 (Windows NT 10.0; Win64; x64) AppleWebKit/537.36 (KHTML, like Gecko) draw.io/27.0.9 Chrome/134.0.6998.205 Electron/35.4.0 Safari/537.36" version="27.0.9">
  <diagram name="Page-1" id="4-filtMo7Ep1zSFOxGVC">
    <mxGraphModel dx="1815" dy="1240" grid="1" gridSize="10" guides="1" tooltips="1" connect="1" arrows="1" fold="1" page="1" pageScale="1" pageWidth="850" pageHeight="1100" math="0" shadow="0">
      <root>
        <mxCell id="0" />
        <mxCell id="1" parent="0" />
        <mxCell id="BaSFN7sYFUGKQCEpuoBo-59" style="edgeStyle=orthogonalEdgeStyle;rounded=0;orthogonalLoop=1;jettySize=auto;html=1;entryX=0.5;entryY=0;entryDx=0;entryDy=0;fillColor=#e1d5e7;strokeColor=#9673a6;fontColor=#000000;strokeWidth=3;" parent="1" source="cIVNdOAZpr95Q1WwHfnz-7" target="BaSFN7sYFUGKQCEpuoBo-52" edge="1">
          <mxGeometry relative="1" as="geometry" />
        </mxCell>
        <mxCell id="BaSFN7sYFUGKQCEpuoBo-60" style="edgeStyle=orthogonalEdgeStyle;rounded=0;orthogonalLoop=1;jettySize=auto;html=1;entryX=0.5;entryY=0;entryDx=0;entryDy=0;fillColor=#e1d5e7;strokeColor=#9673a6;fontColor=#000000;strokeWidth=3;" parent="1" source="cIVNdOAZpr95Q1WwHfnz-7" target="BaSFN7sYFUGKQCEpuoBo-55" edge="1">
          <mxGeometry relative="1" as="geometry" />
        </mxCell>
        <mxCell id="BaSFN7sYFUGKQCEpuoBo-61" style="edgeStyle=orthogonalEdgeStyle;rounded=0;orthogonalLoop=1;jettySize=auto;html=1;entryX=0.5;entryY=0;entryDx=0;entryDy=0;exitX=0.5;exitY=1;exitDx=0;exitDy=0;fillColor=#e1d5e7;strokeColor=#9673a6;fontColor=#000000;strokeWidth=3;" parent="1" source="cIVNdOAZpr95Q1WwHfnz-7" target="BaSFN7sYFUGKQCEpuoBo-58" edge="1">
          <mxGeometry relative="1" as="geometry" />
        </mxCell>
        <mxCell id="BaSFN7sYFUGKQCEpuoBo-62" style="edgeStyle=orthogonalEdgeStyle;rounded=0;orthogonalLoop=1;jettySize=auto;html=1;entryX=0.5;entryY=0;entryDx=0;entryDy=0;exitX=0.5;exitY=1;exitDx=0;exitDy=0;fillColor=#e1d5e7;strokeColor=#9673a6;fontColor=#000000;strokeWidth=3;" parent="1" source="cIVNdOAZpr95Q1WwHfnz-7" target="BaSFN7sYFUGKQCEpuoBo-51" edge="1">
          <mxGeometry relative="1" as="geometry" />
        </mxCell>
        <mxCell id="cIVNdOAZpr95Q1WwHfnz-7" value="Split data into train and test" style="rounded=0;whiteSpace=wrap;html=1;fillColor=#e1d5e7;strokeColor=#9673a6;fontColor=#000000;strokeWidth=3;fontStyle=1;fontSize=14;" parent="1" vertex="1">
          <mxGeometry x="491" y="296" width="120" height="60" as="geometry" />
        </mxCell>
        <mxCell id="BaSFN7sYFUGKQCEpuoBo-69" style="edgeStyle=orthogonalEdgeStyle;rounded=0;orthogonalLoop=1;jettySize=auto;html=1;entryX=0.5;entryY=0;entryDx=0;entryDy=0;fillColor=#e1d5e7;strokeColor=#9673a6;fontColor=#000000;strokeWidth=3;" parent="1" source="cIVNdOAZpr95Q1WwHfnz-8" target="BaSFN7sYFUGKQCEpuoBo-66" edge="1">
          <mxGeometry relative="1" as="geometry">
            <Array as="points">
              <mxPoint x="471" y="600" />
              <mxPoint x="568" y="600" />
            </Array>
          </mxGeometry>
        </mxCell>
        <mxCell id="cIVNdOAZpr95Q1WwHfnz-8" value="Apply SMOTE" style="rounded=0;whiteSpace=wrap;html=1;fillColor=#e1d5e7;strokeColor=#9673a6;fontColor=#000000;strokeWidth=3;fontStyle=1;fontSize=14;" parent="1" vertex="1">
          <mxGeometry x="410" y="525" width="120" height="60" as="geometry" />
        </mxCell>
        <mxCell id="cIVNdOAZpr95Q1WwHfnz-9" value="Apply Standard&amp;nbsp;&lt;div&gt;scaler&lt;/div&gt;" style="rounded=0;whiteSpace=wrap;html=1;fillColor=#e1d5e7;strokeColor=#9673a6;fontColor=#000000;strokeWidth=3;fontStyle=1;fontSize=14;" parent="1" vertex="1">
          <mxGeometry x="411" y="748" width="120" height="60" as="geometry" />
        </mxCell>
        <mxCell id="cIVNdOAZpr95Q1WwHfnz-11" value="Train model as necessary" style="rounded=0;whiteSpace=wrap;html=1;fillColor=#e1d5e7;strokeColor=#9673a6;fontColor=#000000;strokeWidth=3;fontStyle=1;fontSize=14;" parent="1" vertex="1">
          <mxGeometry x="345" y="995" width="120" height="60" as="geometry" />
        </mxCell>
        <mxCell id="BaSFN7sYFUGKQCEpuoBo-108" value="" style="edgeStyle=orthogonalEdgeStyle;rounded=0;orthogonalLoop=1;jettySize=auto;html=1;fillColor=#e1d5e7;strokeColor=#9673a6;entryX=0.5;entryY=0;entryDx=0;entryDy=0;fontColor=#000000;strokeWidth=3;" parent="1" source="cIVNdOAZpr95Q1WwHfnz-13" target="BaSFN7sYFUGKQCEpuoBo-109" edge="1">
          <mxGeometry relative="1" as="geometry">
            <mxPoint x="596" y="1282" as="targetPoint" />
          </mxGeometry>
        </mxCell>
        <mxCell id="cIVNdOAZpr95Q1WwHfnz-13" value="Generate and log all evaluation metrics" style="rounded=0;whiteSpace=wrap;html=1;fillColor=#e1d5e7;strokeColor=#9673a6;fontColor=#000000;strokeWidth=3;fontStyle=1;fontSize=14;" parent="1" vertex="1">
          <mxGeometry x="536" y="1152" width="120" height="60" as="geometry" />
        </mxCell>
        <mxCell id="BaSFN7sYFUGKQCEpuoBo-1" value="Imports" style="swimlane;fontStyle=1;childLayout=stackLayout;horizontal=1;startSize=30;horizontalStack=0;resizeParent=1;resizeParentMax=0;resizeLast=0;collapsible=1;marginBottom=0;whiteSpace=wrap;html=1;fontSize=13;fillColor=#002F8F;fontColor=light-dark(#FFFFFF,#FFFFFF);strokeColor=#001236;strokeWidth=3;" parent="1" vertex="1">
          <mxGeometry x="7" y="4" width="140" height="330" as="geometry" />
        </mxCell>
        <mxCell id="BaSFN7sYFUGKQCEpuoBo-2" value="pandas" style="text;strokeColor=#001236;fillColor=#0054FF;align=left;verticalAlign=middle;spacingLeft=4;spacingRight=4;overflow=hidden;points=[[0,0.5],[1,0.5]];portConstraint=eastwest;rotatable=0;whiteSpace=wrap;html=1;fontColor=#FFFFFF;fontStyle=1;fontSize=12;strokeWidth=3;" parent="BaSFN7sYFUGKQCEpuoBo-1" vertex="1">
          <mxGeometry y="30" width="140" height="30" as="geometry" />
        </mxCell>
        <mxCell id="BaSFN7sYFUGKQCEpuoBo-3" value="numpy" style="text;strokeColor=#001236;fillColor=#0054FF;align=left;verticalAlign=middle;spacingLeft=4;spacingRight=4;overflow=hidden;points=[[0,0.5],[1,0.5]];portConstraint=eastwest;rotatable=0;whiteSpace=wrap;html=1;fontColor=#FFFFFF;fontStyle=1;fontSize=12;strokeWidth=3;" parent="BaSFN7sYFUGKQCEpuoBo-1" vertex="1">
          <mxGeometry y="60" width="140" height="30" as="geometry" />
        </mxCell>
        <mxCell id="BaSFN7sYFUGKQCEpuoBo-4" value="matplotlib" style="text;strokeColor=#001236;fillColor=#0054FF;align=left;verticalAlign=middle;spacingLeft=4;spacingRight=4;overflow=hidden;points=[[0,0.5],[1,0.5]];portConstraint=eastwest;rotatable=0;whiteSpace=wrap;html=1;fontColor=#FFFFFF;fontStyle=1;fontSize=12;strokeWidth=3;" parent="BaSFN7sYFUGKQCEpuoBo-1" vertex="1">
          <mxGeometry y="90" width="140" height="30" as="geometry" />
        </mxCell>
        <mxCell id="BaSFN7sYFUGKQCEpuoBo-15" value="seaborn" style="text;strokeColor=#001236;fillColor=#0054FF;align=left;verticalAlign=middle;spacingLeft=4;spacingRight=4;overflow=hidden;points=[[0,0.5],[1,0.5]];portConstraint=eastwest;rotatable=0;whiteSpace=wrap;html=1;fontColor=#FFFFFF;fontStyle=1;fontSize=12;strokeWidth=3;" parent="BaSFN7sYFUGKQCEpuoBo-1" vertex="1">
          <mxGeometry y="120" width="140" height="30" as="geometry" />
        </mxCell>
        <mxCell id="BaSFN7sYFUGKQCEpuoBo-16" value="sklearn (various and model)" style="text;strokeColor=#001236;fillColor=#0054FF;align=left;verticalAlign=middle;spacingLeft=4;spacingRight=4;overflow=hidden;points=[[0,0.5],[1,0.5]];portConstraint=eastwest;rotatable=0;whiteSpace=wrap;html=1;fontColor=#FFFFFF;fontStyle=1;fontSize=12;strokeWidth=3;" parent="BaSFN7sYFUGKQCEpuoBo-1" vertex="1">
          <mxGeometry y="150" width="140" height="30" as="geometry" />
        </mxCell>
        <mxCell id="BaSFN7sYFUGKQCEpuoBo-17" value="pathlib (Path)" style="text;strokeColor=#001236;fillColor=#0054FF;align=left;verticalAlign=middle;spacingLeft=4;spacingRight=4;overflow=hidden;points=[[0,0.5],[1,0.5]];portConstraint=eastwest;rotatable=0;whiteSpace=wrap;html=1;fontColor=#FFFFFF;fontStyle=1;fontSize=12;strokeWidth=3;" parent="BaSFN7sYFUGKQCEpuoBo-1" vertex="1">
          <mxGeometry y="180" width="140" height="30" as="geometry" />
        </mxCell>
        <mxCell id="BaSFN7sYFUGKQCEpuoBo-12" value="logging" style="text;strokeColor=#001236;fillColor=#0054FF;align=left;verticalAlign=middle;spacingLeft=4;spacingRight=4;overflow=hidden;points=[[0,0.5],[1,0.5]];portConstraint=eastwest;rotatable=0;whiteSpace=wrap;html=1;fontColor=#FFFFFF;fontStyle=1;fontSize=12;strokeWidth=3;" parent="BaSFN7sYFUGKQCEpuoBo-1" vertex="1">
          <mxGeometry y="210" width="140" height="30" as="geometry" />
        </mxCell>
        <mxCell id="BaSFN7sYFUGKQCEpuoBo-13" value="time" style="text;strokeColor=#001236;fillColor=#0054FF;align=left;verticalAlign=middle;spacingLeft=4;spacingRight=4;overflow=hidden;points=[[0,0.5],[1,0.5]];portConstraint=eastwest;rotatable=0;whiteSpace=wrap;html=1;fontColor=#FFFFFF;fontStyle=1;fontSize=12;strokeWidth=3;" parent="BaSFN7sYFUGKQCEpuoBo-1" vertex="1">
          <mxGeometry y="240" width="140" height="30" as="geometry" />
        </mxCell>
        <mxCell id="bPDj1K1QCLfbyG2xDvH1-1" value="joblib" style="text;strokeColor=#001236;fillColor=#0054FF;align=left;verticalAlign=middle;spacingLeft=4;spacingRight=4;overflow=hidden;points=[[0,0.5],[1,0.5]];portConstraint=eastwest;rotatable=0;whiteSpace=wrap;html=1;fontColor=#FFFFFF;fontStyle=1;fontSize=12;strokeWidth=3;" parent="BaSFN7sYFUGKQCEpuoBo-1" vertex="1">
          <mxGeometry y="270" width="140" height="30" as="geometry" />
        </mxCell>
        <mxCell id="BaSFN7sYFUGKQCEpuoBo-14" value="imblearn (SMOTE)" style="text;strokeColor=#001236;fillColor=#0054FF;align=left;verticalAlign=middle;spacingLeft=4;spacingRight=4;overflow=hidden;points=[[0,0.5],[1,0.5]];portConstraint=eastwest;rotatable=0;whiteSpace=wrap;html=1;fontColor=#FFFFFF;fontStyle=1;fontSize=12;strokeWidth=3;" parent="BaSFN7sYFUGKQCEpuoBo-1" vertex="1">
          <mxGeometry y="300" width="140" height="30" as="geometry" />
        </mxCell>
        <mxCell id="BaSFN7sYFUGKQCEpuoBo-18" value="Log set up" style="swimlane;fontStyle=1;childLayout=stackLayout;horizontal=1;startSize=30;horizontalStack=0;resizeParent=1;resizeParentMax=0;resizeLast=0;collapsible=1;marginBottom=0;whiteSpace=wrap;html=1;fontSize=13;fillColor=#002F8F;fontColor=light-dark(#FFFFFF,#FFFFFF);strokeColor=#001236;strokeWidth=3;" parent="1" vertex="1">
          <mxGeometry x="186" y="4" width="140" height="150" as="geometry" />
        </mxCell>
        <mxCell id="BaSFN7sYFUGKQCEpuoBo-19" value=".log file" style="text;strokeColor=#001236;fillColor=#0054FF;align=left;verticalAlign=middle;spacingLeft=4;spacingRight=4;overflow=hidden;points=[[0,0.5],[1,0.5]];portConstraint=eastwest;rotatable=0;whiteSpace=wrap;html=1;fontColor=#FFFFFF;fontStyle=1;strokeWidth=3;" parent="BaSFN7sYFUGKQCEpuoBo-18" vertex="1">
          <mxGeometry y="30" width="140" height="30" as="geometry" />
        </mxCell>
        <mxCell id="BaSFN7sYFUGKQCEpuoBo-20" value="file handler" style="text;strokeColor=#001236;fillColor=#0054FF;align=left;verticalAlign=middle;spacingLeft=4;spacingRight=4;overflow=hidden;points=[[0,0.5],[1,0.5]];portConstraint=eastwest;rotatable=0;whiteSpace=wrap;html=1;fontColor=#FFFFFF;fontStyle=1;strokeWidth=3;" parent="BaSFN7sYFUGKQCEpuoBo-18" vertex="1">
          <mxGeometry y="60" width="140" height="30" as="geometry" />
        </mxCell>
        <mxCell id="BaSFN7sYFUGKQCEpuoBo-21" value="console handler" style="text;strokeColor=#001236;fillColor=#0054FF;align=left;verticalAlign=middle;spacingLeft=4;spacingRight=4;overflow=hidden;points=[[0,0.5],[1,0.5]];portConstraint=eastwest;rotatable=0;whiteSpace=wrap;html=1;fontColor=#FFFFFF;fontStyle=1;strokeWidth=3;" parent="BaSFN7sYFUGKQCEpuoBo-18" vertex="1">
          <mxGeometry y="90" width="140" height="30" as="geometry" />
        </mxCell>
        <mxCell id="BaSFN7sYFUGKQCEpuoBo-22" value="log formatter" style="text;strokeColor=#001236;fillColor=#0054FF;align=left;verticalAlign=middle;spacingLeft=4;spacingRight=4;overflow=hidden;points=[[0,0.5],[1,0.5]];portConstraint=eastwest;rotatable=0;whiteSpace=wrap;html=1;fontColor=#FFFFFF;fontStyle=1;strokeWidth=3;" parent="BaSFN7sYFUGKQCEpuoBo-18" vertex="1">
          <mxGeometry y="120" width="140" height="30" as="geometry" />
        </mxCell>
        <mxCell id="BaSFN7sYFUGKQCEpuoBo-28" value="Load dataset" style="swimlane;fontStyle=1;childLayout=stackLayout;horizontal=1;startSize=30;horizontalStack=0;resizeParent=1;resizeParentMax=0;resizeLast=0;collapsible=1;marginBottom=0;whiteSpace=wrap;html=1;fontSize=13;fillColor=#002F8F;fontColor=light-dark(#FFFFFF,#FFFFFF);strokeColor=#001236;strokeWidth=3;" parent="1" vertex="1">
          <mxGeometry x="363" y="4" width="140" height="100" as="geometry" />
        </mxCell>
        <mxCell id="BaSFN7sYFUGKQCEpuoBo-29" value="data path (with Path)" style="text;strokeColor=#001236;fillColor=#0054FF;align=left;verticalAlign=middle;spacingLeft=4;spacingRight=4;overflow=hidden;points=[[0,0.5],[1,0.5]];portConstraint=eastwest;rotatable=0;whiteSpace=wrap;html=1;fontColor=#FFFFFF;fontStyle=1;strokeWidth=3;" parent="BaSFN7sYFUGKQCEpuoBo-28" vertex="1">
          <mxGeometry y="30" width="140" height="30" as="geometry" />
        </mxCell>
        <mxCell id="BaSFN7sYFUGKQCEpuoBo-30" value="data set (Pandas Dataframe)" style="text;strokeColor=#001236;fillColor=#0054FF;align=left;verticalAlign=middle;spacingLeft=4;spacingRight=4;overflow=hidden;points=[[0,0.5],[1,0.5]];portConstraint=eastwest;rotatable=0;whiteSpace=wrap;html=1;fontColor=#FFFFFF;fontStyle=1;strokeWidth=3;" parent="BaSFN7sYFUGKQCEpuoBo-28" vertex="1">
          <mxGeometry y="60" width="140" height="40" as="geometry" />
        </mxCell>
        <mxCell id="BaSFN7sYFUGKQCEpuoBo-89" style="edgeStyle=orthogonalEdgeStyle;rounded=0;orthogonalLoop=1;jettySize=auto;html=1;entryX=1;entryY=0.5;entryDx=0;entryDy=0;strokeColor=light-dark(#000000,#001236);exitX=1.002;exitY=0.137;exitDx=0;exitDy=0;exitPerimeter=0;strokeWidth=3;" parent="1" source="BaSFN7sYFUGKQCEpuoBo-33" target="cIVNdOAZpr95Q1WwHfnz-11" edge="1">
          <mxGeometry relative="1" as="geometry">
            <Array as="points">
              <mxPoint x="830" y="20" />
              <mxPoint x="830" y="1025" />
            </Array>
          </mxGeometry>
        </mxCell>
        <mxCell id="BaSFN7sYFUGKQCEpuoBo-33" value="Set parameters" style="swimlane;fontStyle=1;childLayout=stackLayout;horizontal=1;startSize=30;horizontalStack=0;resizeParent=1;resizeParentMax=0;resizeLast=0;collapsible=1;marginBottom=0;whiteSpace=wrap;html=1;fontSize=13;fillColor=#002F8F;fontColor=light-dark(#FFFFFF,#FFFFFF);strokeColor=#001236;strokeWidth=3;" parent="1" vertex="1">
          <mxGeometry x="537" y="4" width="140" height="120" as="geometry" />
        </mxCell>
        <mxCell id="BaSFN7sYFUGKQCEpuoBo-34" value="test_size (float)" style="text;strokeColor=#001236;fillColor=#0054FF;align=left;verticalAlign=middle;spacingLeft=4;spacingRight=4;overflow=hidden;points=[[0,0.5],[1,0.5]];portConstraint=eastwest;rotatable=0;whiteSpace=wrap;html=1;fontColor=#FFFFFF;fontStyle=1;strokeWidth=3;" parent="BaSFN7sYFUGKQCEpuoBo-33" vertex="1">
          <mxGeometry y="30" width="140" height="30" as="geometry" />
        </mxCell>
        <mxCell id="BaSFN7sYFUGKQCEpuoBo-35" value="random_state (int)" style="text;strokeColor=#001236;fillColor=#0054FF;align=left;verticalAlign=middle;spacingLeft=4;spacingRight=4;overflow=hidden;points=[[0,0.5],[1,0.5]];portConstraint=eastwest;rotatable=0;whiteSpace=wrap;html=1;fontColor=#FFFFFF;fontStyle=1;strokeWidth=3;" parent="BaSFN7sYFUGKQCEpuoBo-33" vertex="1">
          <mxGeometry y="60" width="140" height="30" as="geometry" />
        </mxCell>
        <mxCell id="BaSFN7sYFUGKQCEpuoBo-36" value="Various (depending on the model)" style="text;strokeColor=#001236;fillColor=#0054FF;align=left;verticalAlign=middle;spacingLeft=4;spacingRight=4;overflow=hidden;points=[[0,0.5],[1,0.5]];portConstraint=eastwest;rotatable=0;whiteSpace=wrap;html=1;fontColor=#FFFFFF;fontStyle=1;strokeWidth=3;" parent="BaSFN7sYFUGKQCEpuoBo-33" vertex="1">
          <mxGeometry y="90" width="140" height="30" as="geometry" />
        </mxCell>
        <mxCell id="BaSFN7sYFUGKQCEpuoBo-40" style="edgeStyle=orthogonalEdgeStyle;rounded=0;orthogonalLoop=1;jettySize=auto;html=1;entryX=0;entryY=0.138;entryDx=0;entryDy=0;entryPerimeter=0;exitX=1.002;exitY=0.163;exitDx=0;exitDy=0;exitPerimeter=0;strokeColor=light-dark(#000000,#001236);strokeWidth=3;" parent="1" source="BaSFN7sYFUGKQCEpuoBo-28" target="BaSFN7sYFUGKQCEpuoBo-33" edge="1">
          <mxGeometry relative="1" as="geometry">
            <Array as="points" />
          </mxGeometry>
        </mxCell>
        <mxCell id="BaSFN7sYFUGKQCEpuoBo-41" value="Full raw dataset&amp;nbsp;&lt;div&gt;Pandas df&amp;nbsp;&lt;/div&gt;&lt;div&gt;(253680 R, 22 C)&lt;/div&gt;" style="shape=hexagon;perimeter=hexagonPerimeter2;whiteSpace=wrap;html=1;fixedSize=1;fillColor=#ffcd28;strokeColor=#d79b00;gradientColor=#ffa500;fontColor=#000000;fontStyle=1;fontSize=14;strokeWidth=3;" parent="1" vertex="1">
          <mxGeometry x="336" y="131" width="140" height="80" as="geometry" />
        </mxCell>
        <mxCell id="BaSFN7sYFUGKQCEpuoBo-42" style="edgeStyle=orthogonalEdgeStyle;rounded=0;orthogonalLoop=1;jettySize=auto;html=1;exitX=0.305;exitY=1.001;exitDx=0;exitDy=0;strokeColor=light-dark(#000000,#001236);strokeWidth=3;exitPerimeter=0;" parent="1" source="BaSFN7sYFUGKQCEpuoBo-30" target="BaSFN7sYFUGKQCEpuoBo-41" edge="1">
          <mxGeometry relative="1" as="geometry">
            <Array as="points" />
          </mxGeometry>
        </mxCell>
        <mxCell id="BaSFN7sYFUGKQCEpuoBo-103" style="edgeStyle=orthogonalEdgeStyle;rounded=0;orthogonalLoop=1;jettySize=auto;html=1;entryX=0.5;entryY=0;entryDx=0;entryDy=0;exitX=0.5;exitY=1;exitDx=0;exitDy=0;fillColor=#ffcd28;gradientColor=#ffa500;strokeColor=#d79b00;strokeWidth=3;" parent="1" source="BaSFN7sYFUGKQCEpuoBo-44" target="cIVNdOAZpr95Q1WwHfnz-7" edge="1">
          <mxGeometry relative="1" as="geometry">
            <Array as="points">
              <mxPoint x="750" y="260" />
              <mxPoint x="551" y="260" />
            </Array>
          </mxGeometry>
        </mxCell>
        <mxCell id="BaSFN7sYFUGKQCEpuoBo-44" value="Cleaned dataset&amp;nbsp;&lt;div&gt;Pandas df&amp;nbsp;&lt;/div&gt;&lt;div&gt;(229474 R, 22 C)&lt;/div&gt;" style="shape=hexagon;perimeter=hexagonPerimeter2;whiteSpace=wrap;html=1;fixedSize=1;fillColor=#ffcd28;gradientColor=#ffa500;strokeColor=#d79b00;fontColor=#000000;fontStyle=1;fontSize=14;strokeWidth=3;" parent="1" vertex="1">
          <mxGeometry x="684" y="134" width="140" height="90" as="geometry" />
        </mxCell>
        <mxCell id="BaSFN7sYFUGKQCEpuoBo-102" style="edgeStyle=orthogonalEdgeStyle;rounded=0;orthogonalLoop=1;jettySize=auto;html=1;entryX=0;entryY=0.5;entryDx=0;entryDy=0;exitX=0.999;exitY=0.328;exitDx=0;exitDy=0;strokeColor=light-dark(#000000,#001236);strokeWidth=3;exitPerimeter=0;" parent="1" source="BaSFN7sYFUGKQCEpuoBo-45" target="BaSFN7sYFUGKQCEpuoBo-44" edge="1">
          <mxGeometry relative="1" as="geometry">
            <Array as="points" />
          </mxGeometry>
        </mxCell>
        <mxCell id="BaSFN7sYFUGKQCEpuoBo-45" value="Handle missing and/or duplicated data" style="swimlane;fontStyle=1;childLayout=stackLayout;horizontal=1;startSize=40;horizontalStack=0;resizeParent=1;resizeParentMax=0;resizeLast=0;collapsible=1;marginBottom=0;whiteSpace=wrap;html=1;fontSize=13;fillColor=#002F8F;fontColor=light-dark(#FFFFFF,#FFFFFF);strokeColor=#001236;strokeWidth=3;" parent="1" vertex="1">
          <mxGeometry x="500" y="146" width="155" height="100" as="geometry" />
        </mxCell>
        <mxCell id="BaSFN7sYFUGKQCEpuoBo-46" value="SimpleImputer (&quot;mean&quot;)" style="text;strokeColor=#001236;fillColor=#0054FF;align=left;verticalAlign=middle;spacingLeft=4;spacingRight=4;overflow=hidden;points=[[0,0.5],[1,0.5]];portConstraint=eastwest;rotatable=0;whiteSpace=wrap;html=1;fontColor=#FFFFFF;fontStyle=1;strokeWidth=3;" parent="BaSFN7sYFUGKQCEpuoBo-45" vertex="1">
          <mxGeometry y="40" width="155" height="30" as="geometry" />
        </mxCell>
        <mxCell id="BaSFN7sYFUGKQCEpuoBo-47" value="drop_duplicates" style="text;strokeColor=#001236;fillColor=#0054FF;align=left;verticalAlign=middle;spacingLeft=4;spacingRight=4;overflow=hidden;points=[[0,0.5],[1,0.5]];portConstraint=eastwest;rotatable=0;whiteSpace=wrap;html=1;fontColor=#FFFFFF;fontStyle=1;strokeWidth=3;" parent="BaSFN7sYFUGKQCEpuoBo-45" vertex="1">
          <mxGeometry y="70" width="155" height="30" as="geometry" />
        </mxCell>
        <mxCell id="BaSFN7sYFUGKQCEpuoBo-51" value="X_train&amp;nbsp;&lt;div&gt;numpy array&lt;br&gt;&lt;div&gt;(independent)&lt;br&gt;&lt;div&gt;(172105 R, 21 C)&lt;/div&gt;&lt;/div&gt;&lt;/div&gt;" style="shape=hexagon;perimeter=hexagonPerimeter2;whiteSpace=wrap;html=1;fixedSize=1;fillColor=#ffcd28;gradientColor=#ffa500;strokeColor=#d79b00;fontColor=#000000;fontStyle=1;fontSize=14;strokeWidth=3;" parent="1" vertex="1">
          <mxGeometry x="251" y="405" width="143" height="80" as="geometry" />
        </mxCell>
        <mxCell id="BaSFN7sYFUGKQCEpuoBo-52" value="Y_train&amp;nbsp;&lt;div&gt;numpy array&lt;br&gt;&lt;div&gt;(dependent)&lt;/div&gt;&lt;/div&gt;&lt;div&gt;&lt;div&gt;(172105 R, 1 C)&lt;/div&gt;&lt;/div&gt;" style="shape=hexagon;perimeter=hexagonPerimeter2;whiteSpace=wrap;html=1;fixedSize=1;fillColor=#ffcd28;gradientColor=#ffa500;strokeColor=#d79b00;fontColor=#000000;fontStyle=1;fontSize=14;strokeWidth=3;" parent="1" vertex="1">
          <mxGeometry x="400" y="405" width="138" height="80" as="geometry" />
        </mxCell>
        <mxCell id="BaSFN7sYFUGKQCEpuoBo-53" style="edgeStyle=orthogonalEdgeStyle;rounded=0;orthogonalLoop=1;jettySize=auto;html=1;exitX=1.002;exitY=0.047;exitDx=0;exitDy=0;exitPerimeter=0;strokeColor=light-dark(#000000,#001236);entryX=0;entryY=0.107;entryDx=0;entryDy=0;entryPerimeter=0;strokeWidth=3;" parent="1" source="BaSFN7sYFUGKQCEpuoBo-1" target="BaSFN7sYFUGKQCEpuoBo-18" edge="1">
          <mxGeometry relative="1" as="geometry">
            <mxPoint x="160" y="21" as="targetPoint" />
            <Array as="points">
              <mxPoint x="160" y="19" />
            </Array>
          </mxGeometry>
        </mxCell>
        <mxCell id="BaSFN7sYFUGKQCEpuoBo-54" style="edgeStyle=orthogonalEdgeStyle;rounded=0;orthogonalLoop=1;jettySize=auto;html=1;entryX=-0.006;entryY=0.181;entryDx=0;entryDy=0;entryPerimeter=0;strokeColor=light-dark(#000000,#001236);strokeWidth=3;" parent="1" target="BaSFN7sYFUGKQCEpuoBo-28" edge="1">
          <mxGeometry relative="1" as="geometry">
            <mxPoint x="326" y="22" as="sourcePoint" />
            <Array as="points">
              <mxPoint x="326" y="22" />
            </Array>
          </mxGeometry>
        </mxCell>
        <mxCell id="BaSFN7sYFUGKQCEpuoBo-73" style="edgeStyle=orthogonalEdgeStyle;rounded=0;orthogonalLoop=1;jettySize=auto;html=1;entryX=0.5;entryY=0;entryDx=0;entryDy=0;exitX=0.5;exitY=1;exitDx=0;exitDy=0;fillColor=#ffcd28;gradientColor=#ffa500;strokeColor=#d79b00;fontColor=#000000;strokeWidth=3;" parent="1" target="cIVNdOAZpr95Q1WwHfnz-9" edge="1" source="BaSFN7sYFUGKQCEpuoBo-55">
          <mxGeometry relative="1" as="geometry">
            <Array as="points">
              <mxPoint x="614" y="540" />
              <mxPoint x="664" y="540" />
              <mxPoint x="664" y="724" />
              <mxPoint x="471" y="724" />
            </Array>
            <mxPoint x="665" y="485" as="sourcePoint" />
          </mxGeometry>
        </mxCell>
        <mxCell id="BaSFN7sYFUGKQCEpuoBo-55" value="X_test&amp;nbsp;&lt;div&gt;numpy array&lt;br&gt;&lt;div&gt;&lt;span style=&quot;background-color: transparent;&quot;&gt;(independent)&lt;/span&gt;&lt;/div&gt;&lt;div&gt;(57369 R, 21 C)&lt;/div&gt;&lt;/div&gt;" style="shape=hexagon;perimeter=hexagonPerimeter2;whiteSpace=wrap;html=1;fixedSize=1;fillColor=#ffcd28;gradientColor=#ffa500;strokeColor=#d79b00;fontColor=#000000;fontStyle=1;fontSize=14;strokeWidth=3;" parent="1" vertex="1">
          <mxGeometry x="543" y="405" width="142" height="80" as="geometry" />
        </mxCell>
        <mxCell id="BaSFN7sYFUGKQCEpuoBo-100" style="edgeStyle=orthogonalEdgeStyle;rounded=0;orthogonalLoop=1;jettySize=auto;html=1;jumpStyle=arc;jumpSize=13;fillColor=#ffcd28;gradientColor=#ffa500;strokeColor=#d79b00;fontColor=#000000;strokeWidth=3;exitX=0.5;exitY=1;exitDx=0;exitDy=0;" parent="1" source="BaSFN7sYFUGKQCEpuoBo-58" edge="1">
          <mxGeometry relative="1" as="geometry">
            <Array as="points">
              <mxPoint x="758" y="1100" />
              <mxPoint x="630" y="1100" />
            </Array>
            <mxPoint x="630" y="1152" as="targetPoint" />
          </mxGeometry>
        </mxCell>
        <mxCell id="BaSFN7sYFUGKQCEpuoBo-58" value="Y_test&amp;nbsp;&lt;br&gt;numpy array&lt;br&gt;&lt;div&gt;&lt;span style=&quot;background-color: transparent;&quot;&gt;(dependent)&lt;/span&gt;&lt;/div&gt;&lt;div&gt;&lt;span style=&quot;background-color: transparent;&quot;&gt;(57369 R, 1 C)&lt;/span&gt;&lt;/div&gt;" style="shape=hexagon;perimeter=hexagonPerimeter2;whiteSpace=wrap;html=1;fixedSize=1;fillColor=#ffcd28;gradientColor=#ffa500;strokeColor=#d79b00;fontColor=#000000;fontStyle=1;fontSize=14;strokeWidth=3;" parent="1" vertex="1">
          <mxGeometry x="690" y="405" width="136" height="80" as="geometry" />
        </mxCell>
        <mxCell id="BaSFN7sYFUGKQCEpuoBo-70" style="edgeStyle=orthogonalEdgeStyle;rounded=0;orthogonalLoop=1;jettySize=auto;html=1;entryX=0.5;entryY=0;entryDx=0;entryDy=0;fillColor=#ffcd28;gradientColor=#ffa500;strokeColor=#d79b00;fontColor=#000000;strokeWidth=3;" parent="1" source="BaSFN7sYFUGKQCEpuoBo-66" target="cIVNdOAZpr95Q1WwHfnz-9" edge="1">
          <mxGeometry relative="1" as="geometry">
            <Array as="points">
              <mxPoint x="559" y="724" />
              <mxPoint x="471" y="724" />
            </Array>
          </mxGeometry>
        </mxCell>
        <mxCell id="BaSFN7sYFUGKQCEpuoBo-66" value="X_train_resampled&amp;nbsp;&lt;div&gt;numpy array&lt;br&gt;&lt;div&gt;(independent)&lt;br&gt;&lt;div&gt;(291564 R, 21 C)&lt;/div&gt;&lt;/div&gt;&lt;/div&gt;" style="shape=hexagon;perimeter=hexagonPerimeter2;whiteSpace=wrap;html=1;fixedSize=1;fillColor=#ffcd28;gradientColor=#ffa500;strokeColor=#d79b00;fontColor=#000000;fontStyle=1;fontSize=14;strokeWidth=3;" parent="1" vertex="1">
          <mxGeometry x="486" y="623" width="164" height="80" as="geometry" />
        </mxCell>
        <mxCell id="BaSFN7sYFUGKQCEpuoBo-84" style="edgeStyle=orthogonalEdgeStyle;rounded=0;orthogonalLoop=1;jettySize=auto;html=1;entryX=0.5;entryY=0;entryDx=0;entryDy=0;fillColor=#ffcd28;gradientColor=#ffa500;strokeColor=#d79b00;fontColor=#000000;strokeWidth=3;exitX=0;exitY=0.5;exitDx=0;exitDy=0;jumpStyle=arc;" parent="1" source="BaSFN7sYFUGKQCEpuoBo-67" target="cIVNdOAZpr95Q1WwHfnz-11" edge="1">
          <mxGeometry relative="1" as="geometry">
            <Array as="points">
              <mxPoint x="300" y="663" />
              <mxPoint x="300" y="940" />
              <mxPoint x="405" y="940" />
            </Array>
          </mxGeometry>
        </mxCell>
        <mxCell id="BaSFN7sYFUGKQCEpuoBo-67" value="Y_train_resampled&amp;nbsp;&lt;div&gt;numpy array&lt;br&gt;&lt;div&gt;(dependent)&lt;/div&gt;&lt;/div&gt;&lt;div&gt;&lt;div&gt;(291564&amp;nbsp;R, 1 C)&lt;/div&gt;&lt;/div&gt;" style="shape=hexagon;perimeter=hexagonPerimeter2;whiteSpace=wrap;html=1;fixedSize=1;fillColor=#ffcd28;gradientColor=#ffa500;strokeColor=#d79b00;fontColor=#000000;fontStyle=1;fontSize=14;strokeWidth=3;" parent="1" vertex="1">
          <mxGeometry x="310" y="623" width="170" height="80" as="geometry" />
        </mxCell>
        <mxCell id="BaSFN7sYFUGKQCEpuoBo-68" style="edgeStyle=orthogonalEdgeStyle;rounded=0;orthogonalLoop=1;jettySize=auto;html=1;exitX=0.5;exitY=1;exitDx=0;exitDy=0;entryX=0.5;entryY=0;entryDx=0;entryDy=0;fillColor=#e1d5e7;strokeColor=#9673a6;fontColor=#000000;strokeWidth=3;" parent="1" source="cIVNdOAZpr95Q1WwHfnz-8" target="BaSFN7sYFUGKQCEpuoBo-67" edge="1">
          <mxGeometry relative="1" as="geometry">
            <mxPoint x="559" y="632" as="targetPoint" />
            <Array as="points">
              <mxPoint x="471" y="600" />
              <mxPoint x="408" y="600" />
            </Array>
          </mxGeometry>
        </mxCell>
        <mxCell id="BaSFN7sYFUGKQCEpuoBo-76" value="THIS STEP IS OMITTED FOR CERTAIN MODELS" style="text;html=1;align=center;verticalAlign=middle;whiteSpace=wrap;rounded=0;strokeColor=light-dark(#FF3333,#972020);fontColor=#000000;fillColor=#FF3333;strokeWidth=3;fontStyle=1;fontSize=14;" parent="1" vertex="1">
          <mxGeometry x="536" y="748" width="134" height="60" as="geometry" />
        </mxCell>
        <mxCell id="BaSFN7sYFUGKQCEpuoBo-83" style="edgeStyle=orthogonalEdgeStyle;rounded=0;orthogonalLoop=1;jettySize=auto;html=1;entryX=0.5;entryY=0;entryDx=0;entryDy=0;fillColor=#ffcd28;gradientColor=#ffa500;strokeColor=#d79b00;fontColor=#000000;exitX=0.5;exitY=1;exitDx=0;exitDy=0;strokeWidth=3;" parent="1" source="BaSFN7sYFUGKQCEpuoBo-77" target="cIVNdOAZpr95Q1WwHfnz-11" edge="1">
          <mxGeometry relative="1" as="geometry">
            <Array as="points">
              <mxPoint x="430" y="940" />
              <mxPoint x="405" y="940" />
            </Array>
          </mxGeometry>
        </mxCell>
        <mxCell id="BaSFN7sYFUGKQCEpuoBo-77" value="X_train_scaled&amp;nbsp;&lt;div&gt;numpy array&lt;br&gt;&lt;div&gt;(independent)&lt;br&gt;&lt;div&gt;(291564 R, 21 C)&lt;/div&gt;&lt;/div&gt;&lt;/div&gt;" style="shape=hexagon;perimeter=hexagonPerimeter2;whiteSpace=wrap;html=1;fixedSize=1;fillColor=#ffcd28;gradientColor=#ffa500;strokeColor=#d79b00;fontColor=#000000;fontStyle=1;fontSize=14;strokeWidth=3;" parent="1" vertex="1">
          <mxGeometry x="357" y="849" width="145" height="80" as="geometry" />
        </mxCell>
        <mxCell id="BaSFN7sYFUGKQCEpuoBo-78" value="X_test_scaled&amp;nbsp;&lt;div&gt;numpy array&lt;br&gt;&lt;div&gt;&lt;span style=&quot;background-color: transparent;&quot;&gt;(independent)&lt;/span&gt;&lt;/div&gt;&lt;div&gt;(57369 R, 21 C)&lt;/div&gt;&lt;/div&gt;" style="shape=hexagon;perimeter=hexagonPerimeter2;whiteSpace=wrap;html=1;fixedSize=1;fillColor=#ffcd28;gradientColor=#ffa500;strokeColor=#d79b00;fontColor=#000000;fontStyle=1;fontSize=14;strokeWidth=3;" parent="1" vertex="1">
          <mxGeometry x="610" y="850" width="140" height="80" as="geometry" />
        </mxCell>
        <mxCell id="BaSFN7sYFUGKQCEpuoBo-82" style="edgeStyle=orthogonalEdgeStyle;rounded=0;orthogonalLoop=1;jettySize=auto;html=1;entryX=0.5;entryY=0;entryDx=0;entryDy=0;fillColor=#e1d5e7;strokeColor=#9673a6;fontColor=#000000;strokeWidth=3;" parent="1" source="cIVNdOAZpr95Q1WwHfnz-9" target="BaSFN7sYFUGKQCEpuoBo-77" edge="1">
          <mxGeometry relative="1" as="geometry">
            <Array as="points">
              <mxPoint x="471" y="820" />
              <mxPoint x="430" y="820" />
            </Array>
          </mxGeometry>
        </mxCell>
        <mxCell id="BaSFN7sYFUGKQCEpuoBo-86" value="&lt;div&gt;predicted_Y&lt;/div&gt;&lt;div&gt;numpy array&lt;br&gt;&lt;div&gt;&lt;span style=&quot;background-color: transparent;&quot;&gt;(predictions)&lt;/span&gt;&lt;/div&gt;&lt;div&gt;(57369 R, 1 C)&lt;/div&gt;&lt;/div&gt;" style="shape=hexagon;perimeter=hexagonPerimeter2;whiteSpace=wrap;html=1;fixedSize=1;fillColor=#ffcd28;gradientColor=#ffa500;strokeColor=#d79b00;fontColor=#000000;fontStyle=1;fontSize=14;strokeWidth=3;" parent="1" vertex="1">
          <mxGeometry x="265" y="1256" width="120" height="80" as="geometry" />
        </mxCell>
        <mxCell id="BaSFN7sYFUGKQCEpuoBo-93" value="" style="edgeStyle=orthogonalEdgeStyle;rounded=0;orthogonalLoop=1;jettySize=auto;html=1;exitX=0.495;exitY=0.993;exitDx=0;exitDy=0;exitPerimeter=0;entryX=0.5;entryY=0.015;entryDx=0;entryDy=0;entryPerimeter=0;fillColor=#e1d5e7;strokeColor=#9673a6;fontColor=#000000;strokeWidth=3;" parent="1" source="BaSFN7sYFUGKQCEpuoBo-87" target="BaSFN7sYFUGKQCEpuoBo-86" edge="1">
          <mxGeometry relative="1" as="geometry">
            <mxPoint x="325" y="1242" as="targetPoint" />
          </mxGeometry>
        </mxCell>
        <mxCell id="BaSFN7sYFUGKQCEpuoBo-87" value="Make predictions with trained model" style="rounded=0;whiteSpace=wrap;html=1;fillColor=#e1d5e7;strokeColor=#9673a6;fontColor=#000000;strokeWidth=3;fontStyle=1;fontSize=14;" parent="1" vertex="1">
          <mxGeometry x="265" y="1167" width="120" height="60" as="geometry" />
        </mxCell>
        <mxCell id="BaSFN7sYFUGKQCEpuoBo-90" style="edgeStyle=orthogonalEdgeStyle;rounded=0;orthogonalLoop=1;jettySize=auto;html=1;jumpStyle=arc;entryX=0.5;entryY=0;entryDx=0;entryDy=0;exitX=0.5;exitY=1;exitDx=0;exitDy=0;jumpSize=13;fillColor=#ffcd28;gradientColor=#ffa500;strokeColor=#d79b00;fontColor=#000000;strokeWidth=3;" parent="1" source="BaSFN7sYFUGKQCEpuoBo-78" target="BaSFN7sYFUGKQCEpuoBo-87" edge="1">
          <mxGeometry relative="1" as="geometry">
            <mxPoint x="204" y="1113" as="targetPoint" />
            <Array as="points">
              <mxPoint x="680" y="960" />
              <mxPoint x="325" y="960" />
            </Array>
          </mxGeometry>
        </mxCell>
        <mxCell id="BaSFN7sYFUGKQCEpuoBo-101" style="edgeStyle=orthogonalEdgeStyle;rounded=0;orthogonalLoop=1;jettySize=auto;html=1;jumpStyle=arc;jumpSize=13;fillColor=#e1d5e7;strokeColor=#9673a6;fontColor=#000000;strokeWidth=3;" parent="1" source="BaSFN7sYFUGKQCEpuoBo-77" target="cIVNdOAZpr95Q1WwHfnz-13" edge="1">
          <mxGeometry relative="1" as="geometry" />
        </mxCell>
        <mxCell id="BaSFN7sYFUGKQCEpuoBo-99" style="edgeStyle=orthogonalEdgeStyle;rounded=0;orthogonalLoop=1;jettySize=auto;html=1;fillColor=#ffcd28;gradientColor=#ffa500;strokeColor=#d79b00;fontColor=#000000;strokeWidth=3;" parent="1" source="BaSFN7sYFUGKQCEpuoBo-86" edge="1">
          <mxGeometry relative="1" as="geometry">
            <Array as="points">
              <mxPoint x="510" y="1296" />
              <mxPoint x="510" y="1120" />
              <mxPoint x="550" y="1120" />
              <mxPoint x="550" y="1152" />
            </Array>
            <mxPoint x="550" y="1152" as="targetPoint" />
          </mxGeometry>
        </mxCell>
        <mxCell id="BaSFN7sYFUGKQCEpuoBo-109" value="&lt;font style=&quot;color: rgb(0, 0, 0);&quot;&gt;&lt;b&gt;END&lt;/b&gt;&lt;/font&gt;" style="ellipse;whiteSpace=wrap;html=1;aspect=fixed;fillColor=light-dark(#FFFFFF,#FF6666);strokeColor=#820000;fontColor=#000000;strokeWidth=3;" parent="1" vertex="1">
          <mxGeometry x="556" y="1280" width="80" height="80" as="geometry" />
        </mxCell>
        <mxCell id="BaSFN7sYFUGKQCEpuoBo-111" style="edgeStyle=orthogonalEdgeStyle;rounded=0;orthogonalLoop=1;jettySize=auto;html=1;strokeColor=light-dark(#FFFFFF, #179c05);entryX=0.5;entryY=1;entryDx=0;entryDy=0;strokeWidth=3;" parent="1" source="BaSFN7sYFUGKQCEpuoBo-110" target="BaSFN7sYFUGKQCEpuoBo-1" edge="1">
          <mxGeometry relative="1" as="geometry">
            <mxPoint x="77" y="340" as="targetPoint" />
            <Array as="points" />
          </mxGeometry>
        </mxCell>
        <mxCell id="BaSFN7sYFUGKQCEpuoBo-110" value="&lt;font style=&quot;color: rgb(0, 0, 0);&quot;&gt;&lt;b&gt;START&lt;/b&gt;&lt;/font&gt;" style="ellipse;whiteSpace=wrap;html=1;aspect=fixed;fillColor=light-dark(#FFFFFF,#99FF99);strokeColor=#179C05;fontColor=#000000;strokeWidth=3;" parent="1" vertex="1">
          <mxGeometry x="37" y="372" width="80" height="80" as="geometry" />
        </mxCell>
        <mxCell id="euON_E8Fl8WKjfMoT3qC-5" style="edgeStyle=orthogonalEdgeStyle;rounded=0;orthogonalLoop=1;jettySize=auto;html=1;entryX=0.712;entryY=-0.002;entryDx=0;entryDy=0;fillColor=#60a917;strokeColor=#004800;strokeWidth=3;entryPerimeter=0;" parent="1" source="euON_E8Fl8WKjfMoT3qC-4" target="BaSFN7sYFUGKQCEpuoBo-87" edge="1">
          <mxGeometry relative="1" as="geometry">
            <Array as="points">
              <mxPoint x="404" y="1140" />
              <mxPoint x="350" y="1140" />
              <mxPoint x="350" y="1167" />
            </Array>
          </mxGeometry>
        </mxCell>
        <mxCell id="euON_E8Fl8WKjfMoT3qC-6" style="edgeStyle=orthogonalEdgeStyle;rounded=0;orthogonalLoop=1;jettySize=auto;html=1;fillColor=#60a917;strokeColor=#004800;strokeWidth=3;" parent="1" source="euON_E8Fl8WKjfMoT3qC-4" edge="1">
          <mxGeometry relative="1" as="geometry">
            <mxPoint x="570" y="1152" as="targetPoint" />
            <Array as="points">
              <mxPoint x="570" y="1104" />
            </Array>
          </mxGeometry>
        </mxCell>
        <mxCell id="euON_E8Fl8WKjfMoT3qC-4" value="&lt;font style=&quot;color: rgb(0, 0, 0);&quot;&gt;Trained model&lt;/font&gt;" style="shape=process;whiteSpace=wrap;html=1;backgroundOutline=1;fillColor=#008a00;fontColor=#ffffff;strokeColor=#004800;fontStyle=1;fontSize=16;strokeWidth=3;" parent="1" vertex="1">
          <mxGeometry x="353" y="1079" width="103" height="51" as="geometry" />
        </mxCell>
        <mxCell id="coKKf2XXby_NF1EcmyyJ-1" value="Save trained model" style="rounded=0;whiteSpace=wrap;html=1;fillColor=#e1d5e7;strokeColor=#9673a6;fontColor=#000000;strokeWidth=3;fontStyle=1;fontSize=14;" parent="1" vertex="1">
          <mxGeometry x="155" y="1074" width="120" height="60" as="geometry" />
        </mxCell>
        <mxCell id="coKKf2XXby_NF1EcmyyJ-3" value="Create .log file&amp;nbsp;&lt;div&gt;and save all subsequent&amp;nbsp;&lt;/div&gt;&lt;div&gt;logs in that file&lt;/div&gt;" style="shape=hexagon;perimeter=hexagonPerimeter2;whiteSpace=wrap;html=1;fixedSize=1;fillColor=#ffcd28;strokeColor=#d79b00;gradientColor=#ffa500;fontColor=#000000;fontStyle=1;fontSize=14;strokeWidth=3;" parent="1" vertex="1">
          <mxGeometry x="188" y="212" width="136" height="88" as="geometry" />
        </mxCell>
        <mxCell id="coKKf2XXby_NF1EcmyyJ-2" style="edgeStyle=orthogonalEdgeStyle;rounded=0;orthogonalLoop=1;jettySize=auto;html=1;exitX=0.5;exitY=1;exitDx=0;exitDy=0;entryX=0.5;entryY=0;entryDx=0;entryDy=0;entryPerimeter=0;strokeWidth=3;strokeColor=light-dark(#000000,#001236);" parent="1" source="BaSFN7sYFUGKQCEpuoBo-18" target="coKKf2XXby_NF1EcmyyJ-3" edge="1">
          <mxGeometry relative="1" as="geometry">
            <mxPoint x="240" y="230" as="targetPoint" />
          </mxGeometry>
        </mxCell>
        <mxCell id="coKKf2XXby_NF1EcmyyJ-6" style="edgeStyle=orthogonalEdgeStyle;rounded=0;orthogonalLoop=1;jettySize=auto;html=1;entryX=1;entryY=0.5;entryDx=0;entryDy=0;exitX=0;exitY=0.5;exitDx=0;exitDy=0;strokeColor=#004800;jumpStyle=arc;jumpSize=13;strokeWidth=3;" parent="1" source="euON_E8Fl8WKjfMoT3qC-4" target="coKKf2XXby_NF1EcmyyJ-1" edge="1">
          <mxGeometry relative="1" as="geometry" />
        </mxCell>
        <mxCell id="coKKf2XXby_NF1EcmyyJ-7" value="Saved trained model as .pkl file" style="shape=hexagon;perimeter=hexagonPerimeter2;whiteSpace=wrap;html=1;fixedSize=1;fillColor=#ffcd28;strokeColor=#d79b00;gradientColor=#ffa500;fontColor=#000000;fontStyle=1;fontSize=12;strokeWidth=3;" parent="1" vertex="1">
          <mxGeometry x="5" y="1064" width="113" height="80" as="geometry" />
        </mxCell>
        <mxCell id="coKKf2XXby_NF1EcmyyJ-8" value="" style="edgeStyle=orthogonalEdgeStyle;rounded=0;orthogonalLoop=1;jettySize=auto;html=1;exitX=0.5;exitY=1;exitDx=0;exitDy=0;entryX=0.5;entryY=0;entryDx=0;entryDy=0;fillColor=#e1d5e7;strokeColor=#9673a6;fontColor=#000000;strokeWidth=3;" parent="1" source="cIVNdOAZpr95Q1WwHfnz-11" target="euON_E8Fl8WKjfMoT3qC-4" edge="1">
          <mxGeometry relative="1" as="geometry">
            <mxPoint x="405.5" y="1100" as="targetPoint" />
            <mxPoint x="404.5" y="1069" as="sourcePoint" />
          </mxGeometry>
        </mxCell>
        <mxCell id="coKKf2XXby_NF1EcmyyJ-9" style="edgeStyle=orthogonalEdgeStyle;rounded=0;orthogonalLoop=1;jettySize=auto;html=1;entryX=1;entryY=0.5;entryDx=0;entryDy=0;strokeColor=#9673A6;strokeWidth=3;" parent="1" source="coKKf2XXby_NF1EcmyyJ-1" target="coKKf2XXby_NF1EcmyyJ-7" edge="1">
          <mxGeometry relative="1" as="geometry" />
        </mxCell>
        <mxCell id="_CRPb3yX-0tugD3IFe5X-7" style="edgeStyle=orthogonalEdgeStyle;rounded=0;orthogonalLoop=1;jettySize=auto;html=1;entryX=0.5;entryY=0;entryDx=0;entryDy=0;fillColor=#e1d5e7;strokeColor=#9673a6;fontColor=#000000;strokeWidth=3;exitX=0.5;exitY=1;exitDx=0;exitDy=0;" edge="1" parent="1" source="cIVNdOAZpr95Q1WwHfnz-9" target="BaSFN7sYFUGKQCEpuoBo-78">
          <mxGeometry relative="1" as="geometry">
            <mxPoint x="511" y="820" as="sourcePoint" />
            <mxPoint x="470" y="860" as="targetPoint" />
            <Array as="points">
              <mxPoint x="471" y="820" />
              <mxPoint x="680" y="820" />
            </Array>
          </mxGeometry>
        </mxCell>
        <mxCell id="BaSFN7sYFUGKQCEpuoBo-43" style="edgeStyle=orthogonalEdgeStyle;rounded=0;orthogonalLoop=1;jettySize=auto;html=1;entryX=0;entryY=0.25;entryDx=0;entryDy=0;fillColor=#ffcd28;gradientColor=#ffa500;strokeColor=#d79b00;strokeWidth=3;exitX=1;exitY=0.5;exitDx=0;exitDy=0;" parent="1" source="BaSFN7sYFUGKQCEpuoBo-41" target="BaSFN7sYFUGKQCEpuoBo-45" edge="1">
          <mxGeometry relative="1" as="geometry">
            <mxPoint x="535" y="224.0000000000001" as="targetPoint" />
            <Array as="points">
              <mxPoint x="480" y="171" />
              <mxPoint x="480" y="171" />
            </Array>
          </mxGeometry>
        </mxCell>
        <mxCell id="_CRPb3yX-0tugD3IFe5X-9" style="edgeStyle=orthogonalEdgeStyle;rounded=0;orthogonalLoop=1;jettySize=auto;html=1;entryX=0.5;entryY=0;entryDx=0;entryDy=0;fillColor=#ffcd28;gradientColor=#ffa500;strokeColor=#d79b00;fontColor=#000000;strokeWidth=3;exitX=0.5;exitY=1;exitDx=0;exitDy=0;" edge="1" parent="1" source="BaSFN7sYFUGKQCEpuoBo-52" target="cIVNdOAZpr95Q1WwHfnz-8">
          <mxGeometry relative="1" as="geometry">
            <Array as="points">
              <mxPoint x="470" y="485" />
            </Array>
            <mxPoint x="384.95" y="532.5" as="sourcePoint" />
            <mxPoint x="296.95" y="577.5" as="targetPoint" />
          </mxGeometry>
        </mxCell>
        <mxCell id="_CRPb3yX-0tugD3IFe5X-10" style="edgeStyle=orthogonalEdgeStyle;rounded=0;orthogonalLoop=1;jettySize=auto;html=1;entryX=0.5;entryY=0;entryDx=0;entryDy=0;fillColor=#ffcd28;gradientColor=#ffa500;strokeColor=#d79b00;fontColor=#000000;strokeWidth=3;exitX=0.5;exitY=1;exitDx=0;exitDy=0;" edge="1" parent="1" source="BaSFN7sYFUGKQCEpuoBo-51" target="cIVNdOAZpr95Q1WwHfnz-8">
          <mxGeometry relative="1" as="geometry">
            <Array as="points">
              <mxPoint x="322" y="490" />
              <mxPoint x="323" y="490" />
              <mxPoint x="323" y="500" />
              <mxPoint x="470" y="500" />
            </Array>
            <mxPoint x="394" y="485" as="sourcePoint" />
            <mxPoint x="395" y="525" as="targetPoint" />
          </mxGeometry>
        </mxCell>
      </root>
    </mxGraphModel>
  </diagram>
</mxfile>
